<mxfile host="app.diagrams.net" agent="Mozilla/5.0 (Windows NT 10.0; Win64; x64) AppleWebKit/537.36 (KHTML, like Gecko) Chrome/130.0.0.0 Safari/537.36" version="24.8.4">
  <diagram name="Page-1" id="xSCrcE9DE2PbVG2IpA-M">
    <mxGraphModel dx="2284" dy="738" grid="1" gridSize="10" guides="1" tooltips="1" connect="1" arrows="1" fold="1" page="1" pageScale="1" pageWidth="850" pageHeight="1100" math="0" shadow="0">
      <root>
        <mxCell id="0" />
        <mxCell id="1" parent="0" />
        <mxCell id="0APl-ZvWKWZw0Ipn49ds-3" style="edgeStyle=orthogonalEdgeStyle;rounded=0;orthogonalLoop=1;jettySize=auto;html=1;" edge="1" parent="1" source="0APl-ZvWKWZw0Ipn49ds-1">
          <mxGeometry relative="1" as="geometry">
            <mxPoint x="220" y="200" as="targetPoint" />
          </mxGeometry>
        </mxCell>
        <mxCell id="0APl-ZvWKWZw0Ipn49ds-6" style="edgeStyle=orthogonalEdgeStyle;rounded=0;orthogonalLoop=1;jettySize=auto;html=1;entryX=0;entryY=0.5;entryDx=0;entryDy=0;" edge="1" parent="1" source="0APl-ZvWKWZw0Ipn49ds-1" target="0APl-ZvWKWZw0Ipn49ds-5">
          <mxGeometry relative="1" as="geometry">
            <Array as="points">
              <mxPoint x="220" y="200" />
              <mxPoint x="220" y="200" />
            </Array>
          </mxGeometry>
        </mxCell>
        <mxCell id="0APl-ZvWKWZw0Ipn49ds-7" value="feed into" style="edgeLabel;html=1;align=center;verticalAlign=middle;resizable=0;points=[];" vertex="1" connectable="0" parent="0APl-ZvWKWZw0Ipn49ds-6">
          <mxGeometry x="-0.1818" y="2" relative="1" as="geometry">
            <mxPoint as="offset" />
          </mxGeometry>
        </mxCell>
        <mxCell id="0APl-ZvWKWZw0Ipn49ds-1" value="virtual machine&lt;div&gt;iso&lt;/div&gt;" style="rounded=0;whiteSpace=wrap;html=1;" vertex="1" parent="1">
          <mxGeometry x="30" y="170" width="110" height="60" as="geometry" />
        </mxCell>
        <mxCell id="0APl-ZvWKWZw0Ipn49ds-2" value="&lt;h2&gt;virtualdetect pipeline&lt;/h2&gt;" style="text;strokeColor=none;align=center;fillColor=none;html=1;verticalAlign=middle;whiteSpace=wrap;rounded=0;" vertex="1" parent="1">
          <mxGeometry x="-150" y="50" width="510" height="130" as="geometry" />
        </mxCell>
        <mxCell id="0APl-ZvWKWZw0Ipn49ds-9" value="" style="edgeStyle=orthogonalEdgeStyle;rounded=0;orthogonalLoop=1;jettySize=auto;html=1;" edge="1" parent="1" source="0APl-ZvWKWZw0Ipn49ds-5" target="0APl-ZvWKWZw0Ipn49ds-8">
          <mxGeometry relative="1" as="geometry" />
        </mxCell>
        <mxCell id="0APl-ZvWKWZw0Ipn49ds-5" value="virtualization artifact detection" style="rounded=0;whiteSpace=wrap;html=1;" vertex="1" parent="1">
          <mxGeometry x="250" y="170" width="120" height="60" as="geometry" />
        </mxCell>
        <mxCell id="0APl-ZvWKWZw0Ipn49ds-12" value="" style="edgeStyle=orthogonalEdgeStyle;rounded=0;orthogonalLoop=1;jettySize=auto;html=1;" edge="1" parent="1" source="0APl-ZvWKWZw0Ipn49ds-8" target="0APl-ZvWKWZw0Ipn49ds-11">
          <mxGeometry relative="1" as="geometry" />
        </mxCell>
        <mxCell id="0APl-ZvWKWZw0Ipn49ds-8" value="modify vm values and data" style="rounded=0;whiteSpace=wrap;html=1;" vertex="1" parent="1">
          <mxGeometry x="450" y="170" width="120" height="60" as="geometry" />
        </mxCell>
        <mxCell id="0APl-ZvWKWZw0Ipn49ds-16" value="" style="edgeStyle=orthogonalEdgeStyle;rounded=0;orthogonalLoop=1;jettySize=auto;html=1;" edge="1" parent="1" source="0APl-ZvWKWZw0Ipn49ds-11" target="0APl-ZvWKWZw0Ipn49ds-15">
          <mxGeometry relative="1" as="geometry" />
        </mxCell>
        <mxCell id="0APl-ZvWKWZw0Ipn49ds-11" value="populate vm with &quot;valuables&quot;" style="rounded=0;whiteSpace=wrap;html=1;" vertex="1" parent="1">
          <mxGeometry x="650" y="170" width="120" height="60" as="geometry" />
        </mxCell>
        <mxCell id="kOkwpyVvnz4lnNvjVxz7-2" value="" style="edgeStyle=orthogonalEdgeStyle;rounded=0;orthogonalLoop=1;jettySize=auto;html=1;" edge="1" parent="1" source="0APl-ZvWKWZw0Ipn49ds-15" target="kOkwpyVvnz4lnNvjVxz7-1">
          <mxGeometry relative="1" as="geometry" />
        </mxCell>
        <mxCell id="0APl-ZvWKWZw0Ipn49ds-15" value="auto-deploy via proxmox" style="whiteSpace=wrap;html=1;rounded=0;" vertex="1" parent="1">
          <mxGeometry x="650" y="310" width="120" height="60" as="geometry" />
        </mxCell>
        <mxCell id="kOkwpyVvnz4lnNvjVxz7-1" value="monitoring tools setup" style="whiteSpace=wrap;html=1;rounded=0;" vertex="1" parent="1">
          <mxGeometry x="450" y="310" width="120" height="60" as="geometry" />
        </mxCell>
      </root>
    </mxGraphModel>
  </diagram>
</mxfile>
